<?xml version="1.0" encoding="utf-8"?>
<!-- Generator: Adobe Illustrator 24.2.3, SVG Export Plug-In . SVG Version: 6.00 Build 0)  -->
<svg version="1.1" id="All" xmlns="http://www.w3.org/2000/svg" xmlns:xlink="http://www.w3.org/1999/xlink" x="0px" y="0px"
	 viewBox="0 0 311.81 311.81" style="enable-background:new 0 0 311.81 311.81;" xml:space="preserve">
<style type="text/css">
	.st0{fill:#4F9DD6;}
	.st1{fill:#04588D;}
	.st2{fill:#143652;}
	.st3{fill:#ECF2F6;}
	.st4{fill:#BBBFC2;}
	.st5{fill:#7E8182;}
</style>
<path class="st3" d="M246.61,14.17c-8.76,15.51-21.6,40.38-40.76,43.59c-7.17,1.3-14.73-0.07-21.89,1.38
	c-15.33,2.69-21,19.77-21.3,33.48c-0.47,15.24,5.17,34.86,22.74,37.07c6.04,0.92,12.43,0.09,18.48,0.84
	c14.08,1.37,23.77,13.44,31.12,24.4c-16.9,1.17-33.99,5.44-48.34,14.7c-40.74,27.03-53.23,81.91-53.56,128
	c-62.33-25.3-74.65-114.06-64.95-172.91c6.33-39.09,24.95-81.7,63.83-97.69c13.98-5.84,29.26-7.77,44.3-8.27
	C199.62,18.03,223.77,20.04,246.61,14.17z"/>
<path class="st4" d="M235.01,154.93c-16.9,1.17-33.99,5.44-48.34,14.7c-40.75,27.03-53.23,81.92-53.56,128
	c-58.86-32.29-62.75-141.53-32.69-194.63c11.77-21.61,30.56-37.14,55.03-41.87c12.35-2.59,25.08-2.73,37.66-2.74
	c-0.02,0-0.03,0.01-0.04,0.01c-3.06,0.02-6.11,0.13-9.09,0.74c-15.33,2.68-21,19.76-21.31,33.48c-0.46,15.24,5.17,34.86,22.74,37.07
	c6.04,0.92,12.43,0.09,18.49,0.84C217.97,131.91,227.66,143.98,235.01,154.93z"/>
<path class="st5" d="M235.01,154.94c-16.9,1.17-33.99,5.44-48.34,14.7c-40.74,27.03-53.23,81.91-53.56,128
	c-8.93-38.1-7.36-79.22,6.55-115.94c9.03-22.7,25.65-48.54,52.13-51.36c5.99-0.32,12.26-0.35,18.04,1.46
	C220.96,135.54,228.65,145.55,235.01,154.94z"/>
</svg>
