<svg id="Capa_1" enable-background="new 0 0 512 512" height="512" viewBox="0 0 512 512" width="512" xmlns="http://www.w3.org/2000/svg"><path d="m509.067 153.014-149.942-149.778c-3.909-3.903-10.239-3.899-14.143.008-3.903 3.908-3.899 10.239.008 14.142l37.063 37.023-35.05 34.982-37.085-37.044c-3.904-3.901-10.23-3.9-14.135 0l-35.049 35.01c-1.878 1.876-2.933 4.421-2.933 7.075s1.055 5.199 2.933 7.075l22.784 22.759-240.193 239.969c-1.878 1.875-2.933 4.421-2.933 7.075s1.056 5.199 2.933 7.075l21.144 21.12-21.163 21.26c-3.884 3.901-3.884 10.208 0 14.109l9.796 9.841-50.154 49.884c-3.916 3.895-3.933 10.227-.038 14.142 1.954 1.965 4.521 2.948 7.09 2.948 2.55 0 5.102-.97 7.052-2.91l50.16-49.888 9.478 9.522c1.876 1.885 4.427 2.945 7.087 2.945s5.211-1.06 7.087-2.945l21.234-21.332 21.439 21.415c1.952 1.95 4.51 2.925 7.067 2.925s5.115-.975 7.067-2.926l240.209-239.985 22.798 22.773c1.952 1.951 4.51 2.925 7.067 2.925s5.115-.975 7.067-2.925l35.049-35.01c1.878-1.876 2.933-4.421 2.933-7.075s-1.055-5.199-2.933-7.075l-37.064-37.023 35.05-34.981 37.085 37.044c1.953 1.95 4.51 2.925 7.067 2.925 2.561 0 5.122-.978 7.075-2.933 3.904-3.907 3.9-10.238-.007-14.141zm-425.291 294.17-19.274-19.364 14.017-14.08 19.273 19.363zm56.826.102-76.061-75.977 118.783-118.672h152.109zm214.849-214.649h-152.108l94.326-94.238 76.061 75.977zm62.294-2.563-135.792-135.643 20.898-20.875 135.792 135.643zm-9.098-79.108-47.493-47.441 35.05-34.982 47.493 47.441z"/></svg>