<svg id="Layer_1" data-name="Layer 1" xmlns="http://www.w3.org/2000/svg" viewBox="0 0 512 512"><defs><style>.cls-1,.cls-3{fill:#fff;}.cls-1{stroke:#143652;}.cls-1,.cls-3,.cls-4{stroke-linecap:round;stroke-linejoin:round;}.cls-1,.cls-4{stroke-width:7px;}.cls-2{fill:#459bd5;}.cls-3,.cls-4{stroke:#459bd5;}.cls-3{stroke-width:10.29px;}.cls-4{fill:none;}</style></defs><path class="cls-1" d="M380.5,113.54V305a71.9,71.9,0,0,0-100.33,88.12H109.3V40.78H307.73Z"/><polygon class="cls-1" points="381.04 114.08 307.74 114.08 307.74 40.78 380.5 113.54 381.04 114.08"/><polygon class="cls-2" points="323.51 420.45 299.44 474.25 324.33 464.75 333.91 489.83 358.04 435.9 323.51 420.45"/><polygon class="cls-2" points="392.56 420.45 416.64 474.25 391.74 464.75 382.17 489.83 358.04 435.9 392.56 420.45"/><circle class="cls-3" cx="353.63" cy="374.81" r="59.03"/><circle class="cls-2" cx="352.63" cy="375.52" r="31.84"/><line class="cls-4" x1="136.25" y1="123.22" x2="261.09" y2="123.22"/><line class="cls-4" x1="136.25" y1="175.48" x2="353.44" y2="175.48"/><line class="cls-4" x1="136.25" y1="227.73" x2="353.44" y2="227.73"/></svg>